<svg width="29" height="36" viewBox="0 0 29 36" fill="none" xmlns="http://www.w3.org/2000/svg">
<path d="M19.7673 15.7819V26.4586H26.9494V7.42434H22.4622C21.9578 7.42434 21.5595 7.01264 21.5595 6.50487V1.85265H8.53618V9.29071H13.4747C13.7269 9.29071 13.9526 9.4005 14.1252 9.56518L19.5018 15.1231C19.5947 15.2329 19.7673 15.4525 19.7673 15.7819ZM19.7673 28.325V34.3633C19.7673 34.8711 19.3558 35.2828 18.8646 35.2828H0.902738C0.398267 35.2828 0 34.8711 0 34.3633V10.2102C0 9.70242 0.398267 9.29071 0.902738 9.29071H6.74398V0.933189C6.74398 0.411701 7.14225 0 7.63344 0H22.4622C22.7145 0 22.9402 0.109787 23.0995 0.288191L28.4761 5.84615C28.5823 5.94221 28.7416 6.17551 28.7416 6.50487V27.3918C28.7416 27.8996 28.3433 28.325 27.8521 28.325H19.7673V28.325ZM25.6749 5.57168L23.3517 3.1701V5.57168H25.6749ZM12.5719 11.1434H1.7922V33.4301H17.9618V16.7151H13.4747C12.9835 16.7151 12.5719 16.3034 12.5719 15.7819V11.1434V11.1434ZM16.7006 14.8624L14.3774 12.4608V14.8624H16.7006Z" fill="black"/>
</svg>
