<svg width="32" height="36" viewBox="0 0 32 36" fill="none" xmlns="http://www.w3.org/2000/svg">
<path d="M12.4252 9.27362C12.5327 9.34967 12.6541 9.40379 12.7825 9.43289C12.911 9.46199 13.0438 9.46551 13.1736 9.44323C13.3034 9.42096 13.4275 9.37333 13.5389 9.30307C13.6502 9.23281 13.7466 9.1413 13.8226 9.03376L17.488 3.84938L16.799 3.36221C16.6897 3.23354 16.5497 3.13454 16.3919 3.07437L12.3037 0.183929C12.1962 0.107925 12.0747 0.0538399 11.9463 0.0247608C11.8179 -0.0043184 11.685 -0.00782288 11.5553 0.0144501C11.4255 0.036723 11.3014 0.0843376 11.1901 0.154572C11.0787 0.224806 10.9823 0.316286 10.9063 0.423789C10.8303 0.531292 10.7762 0.652711 10.7471 0.781117C10.718 0.909522 10.7145 1.0424 10.7368 1.17216C10.7591 1.30192 10.8067 1.42602 10.8769 1.53738C10.9472 1.64873 11.0386 1.74517 11.1461 1.82117L13.247 3.30651C9.29693 4.00465 5.7519 6.15762 3.31106 9.34077C0.870222 12.5239 -0.289216 16.5062 0.0614277 20.5021C0.412071 24.498 2.24734 28.2174 5.20525 30.9268C8.16317 33.6362 12.029 35.1389 16.0402 35.1384C16.3061 35.1384 16.5611 35.0328 16.7491 34.8448C16.9371 34.6568 17.0428 34.4018 17.0428 34.1359C17.0428 33.87 16.9371 33.6151 16.7491 33.427C16.5611 33.239 16.3061 33.1334 16.0402 33.1334C12.4885 33.1337 9.06873 31.7873 6.47052 29.3657C3.87231 26.9441 2.28892 23.6274 2.03964 20.0844C1.79035 16.5414 2.89371 13.0357 5.12723 10.2741C7.36075 7.51249 10.5583 5.7005 14.0751 5.20345L12.1854 7.87623C12.1094 7.98373 12.0553 8.10515 12.0262 8.23356C11.9971 8.36196 11.9936 8.49484 12.0159 8.62461C12.0381 8.75437 12.0858 8.87847 12.156 8.98983C12.2262 9.10119 12.3177 9.19762 12.4252 9.27362V9.27362Z" fill="black"/>
<path d="M24.5725 30.1921C23.2503 31.2068 21.7577 31.9775 20.1648 32.4679C19.96 32.5294 19.7805 32.6552 19.6529 32.8268C19.5253 32.9983 19.4564 33.2065 19.4563 33.4203C19.4555 33.5221 19.4702 33.6235 19.4997 33.721C19.5618 33.9267 19.6888 34.1068 19.8616 34.2345C20.0345 34.3622 20.2439 34.4306 20.4588 34.4295C20.5505 34.4295 20.6418 34.416 20.7295 34.3893V34.3926L20.7529 34.3859C20.7628 34.3826 20.7762 34.3759 20.7863 34.3725C22.5961 33.8148 24.2914 32.9377 25.7922 31.7827C25.8971 31.7028 25.9851 31.6029 26.0513 31.4889C26.1175 31.3748 26.1605 31.2488 26.1779 31.1181C26.1953 30.9874 26.1867 30.8546 26.1526 30.7272C26.1185 30.5998 26.0597 30.4804 25.9793 30.3758C25.8135 30.1701 25.5748 30.0362 25.3128 30.0019C25.0507 29.9677 24.7856 30.0358 24.5725 30.1921V30.1921Z" fill="black"/>
<path d="M29.9225 16.9623C29.9583 17.1994 30.0776 17.4159 30.259 17.5728C30.4404 17.7296 30.6718 17.8165 30.9116 17.8177C30.9621 17.8182 31.0125 17.8138 31.0621 17.8045C31.2984 17.7682 31.5142 17.6492 31.6709 17.4686C31.8276 17.2881 31.915 17.0577 31.9176 16.8186C31.9164 16.7682 31.912 16.7179 31.9042 16.6682C31.6249 14.7815 31.0092 12.9604 30.0863 11.2914C29.978 11.0964 29.8079 10.9431 29.6027 10.8556C29.3976 10.7681 29.1692 10.7513 28.9535 10.808C28.7378 10.8647 28.5471 10.9916 28.4116 11.1687C28.276 11.3458 28.2032 11.5629 28.2048 11.7859C28.2049 11.9536 28.2488 12.1183 28.3319 12.2639C29.1387 13.7224 29.6774 15.3137 29.9225 16.9623Z" fill="black"/>
<path d="M21.625 4.00651C21.5125 3.96549 21.3939 3.94402 21.2742 3.94304C21.0698 3.9445 20.8707 4.00787 20.703 4.1248C20.5354 4.24172 20.4071 4.40671 20.3351 4.598C20.2957 4.70856 20.2742 4.82476 20.2717 4.94212C20.2715 5.1473 20.3342 5.3476 20.4513 5.51607C20.5684 5.68455 20.7343 5.8131 20.9266 5.88443C22.4807 6.4632 23.9199 7.31292 25.1774 8.39414L25.1841 8.3974C25.1873 8.4041 25.194 8.40752 25.1973 8.41078L25.204 8.41421C25.384 8.57003 25.6143 8.65546 25.8524 8.65472C25.9964 8.65461 26.1386 8.62351 26.2695 8.56354C26.4003 8.50357 26.5168 8.41613 26.6108 8.30717C26.7693 8.12589 26.8561 7.89298 26.8549 7.65221C26.8551 7.50818 26.8242 7.36582 26.7642 7.23489C26.7042 7.10395 26.6166 6.98754 26.5074 6.89363C25.0656 5.64716 23.4119 4.66931 21.625 4.00651V4.00651Z" fill="black"/>
<path d="M30.9652 21.1494C30.7055 21.0992 30.4364 21.1521 30.215 21.2968C29.9936 21.4414 29.8372 21.6666 29.7789 21.9246C29.4405 23.5565 28.8111 25.1141 27.9209 26.5229C27.8177 26.6844 27.7643 26.8727 27.7672 27.0643C27.7686 27.2807 27.84 27.4909 27.9707 27.6634C28.1014 27.8358 28.2845 27.9613 28.4924 28.0211C28.7004 28.0809 28.9222 28.0718 29.1245 27.9951C29.3269 27.9184 29.499 27.7783 29.6151 27.5956C30.6339 25.9827 31.3549 24.2001 31.7438 22.3324C31.7966 22.0724 31.7443 21.802 31.5984 21.5803C31.4526 21.3587 31.2249 21.2038 30.9652 21.1494V21.1494Z" fill="black"/>
</svg>
