<svg width="38" height="39" viewBox="0 0 38 39" fill="none" xmlns="http://www.w3.org/2000/svg">
<path d="M19 0C8.52277 0 0 8.54514 0 19.0481C0 29.5511 8.52277 38.0962 19 38.0962C29.4772 38.0962 38 29.5511 38 19.0481C38 8.54514 29.4772 0 19 0ZM19 34.9215C10.27 34.9215 3.16667 27.801 3.16667 19.0481C3.16667 10.2952 10.27 3.17468 19 3.17468C27.73 3.17468 34.8333 10.2952 34.8333 19.0481C34.8333 27.801 27.73 34.9215 19 34.9215ZM26.4528 13.821L21.239 19.0481L26.4529 24.2752C27.0714 24.8952 27.0714 25.8997 26.4529 26.5199C26.1435 26.8297 25.7385 26.9848 25.3333 26.9848C24.9282 26.9848 24.5231 26.8297 24.2139 26.5197L19 21.2928L13.7861 26.5199C13.4769 26.8297 13.0718 26.9848 12.6667 26.9848C12.2615 26.9848 11.8565 26.8297 11.5473 26.5197C10.9288 25.8997 10.9288 24.8952 11.5473 24.2751L16.761 19.0481L11.5471 13.821C10.9286 13.201 10.9286 12.1965 11.5471 11.5763C12.1655 10.9561 13.1675 10.9563 13.7861 11.5763L19 16.8034L24.2139 11.5763C24.8324 10.9563 25.8343 10.9563 26.4529 11.5763C27.0715 12.1963 27.0714 13.201 26.4528 13.821Z" fill="white"/>
</svg>
