<svg width="37" height="37" viewBox="0 0 37 37" fill="none" xmlns="http://www.w3.org/2000/svg">
<path d="M15.2889 25.9661C15.4137 26.112 15.5688 26.2289 15.7434 26.3088C15.918 26.3887 16.1078 26.4296 16.2998 26.4286C16.496 26.4231 16.6885 26.3741 16.8634 26.2849C17.0383 26.1958 17.1911 26.0688 17.3107 25.9132L27.4791 12.6989C27.585 12.5614 27.6627 12.4044 27.7079 12.2368C27.753 12.0693 27.7648 11.8944 27.7424 11.7223C27.72 11.5502 27.6639 11.3842 27.5773 11.2338C27.4908 11.0834 27.3755 10.9515 27.2379 10.8456C27.1004 10.7398 26.9434 10.662 26.7758 10.6169C26.6083 10.5717 26.4334 10.56 26.2614 10.5824C26.0893 10.6048 25.9233 10.6608 25.7728 10.7474C25.6224 10.8339 25.4905 10.9493 25.3846 11.0868L16.2139 22.9797L11.5096 17.4495C11.4068 17.2914 11.2713 17.1571 11.1123 17.0557C10.9532 16.9543 10.7743 16.8882 10.5876 16.8617C10.4008 16.8352 10.2106 16.849 10.0296 16.9021C9.84866 16.9552 9.68116 17.0465 9.5384 17.1698C9.39563 17.293 9.2809 17.4454 9.20193 17.6167C9.12295 17.788 9.08156 17.9742 9.08053 18.1628C9.07949 18.3514 9.11885 18.538 9.19594 18.7101C9.27304 18.8823 9.38609 19.0359 9.5275 19.1607L15.2889 25.9661Z" fill="white"/>
<path d="M18.5 37C22.159 37 25.7357 35.915 28.7781 33.8822C31.8204 31.8494 34.1916 28.9601 35.5918 25.5797C36.992 22.1992 37.3584 18.4795 36.6445 14.8908C35.9307 11.3022 34.1687 8.0058 31.5815 5.41853C28.9942 2.83126 25.6978 1.06931 22.1092 0.355481C18.5205 -0.358346 14.8008 0.00801574 11.4204 1.40824C8.03992 2.80846 5.15062 5.17965 3.11781 8.22196C1.08501 11.2643 0 14.8411 0 18.5C0 23.4065 1.9491 28.1121 5.41852 31.5815C8.88795 35.0509 13.5935 37 18.5 37ZM18.5 2.64287C21.6362 2.64287 24.7021 3.57287 27.3098 5.31528C29.9175 7.05768 31.9499 9.53423 33.1501 12.4317C34.3503 15.3293 34.6643 18.5176 34.0525 21.5936C33.4406 24.6696 31.9304 27.495 29.7127 29.7127C27.495 31.9304 24.6696 33.4406 21.5936 34.0525C18.5176 34.6643 15.3292 34.3503 12.4317 33.1501C9.53422 31.9499 7.05767 29.9175 5.31527 27.3098C3.57286 24.7021 2.64286 21.6363 2.64286 18.5C2.64286 14.2944 4.31352 10.2611 7.28731 7.28732C10.2611 4.31352 14.2944 2.64287 18.5 2.64287V2.64287Z" fill="white"/>
</svg>
